<svg id="Icons" xmlns="http://www.w3.org/2000/svg" viewBox="0 0 512 512"><defs><style>.cls-1{fill:#8d00af;}.cls-2{fill:#aa0dd1;}.cls-3{fill:#a583bb;}.cls-4{fill:#c2aacf;}.cls-5{fill:#decee5;}.cls-6{fill:#9175a7;}.cls-7{fill:#f4e6f4;}.cls-8{fill:#fff;}.cls-9{fill:#098955;}.cls-10{fill:#51c441;}.cls-11{fill:#65e856;}.cls-12{fill:#92f784;}.cls-13{fill:#14a36d;}</style></defs><title>019-beer-export</title><circle class="cls-1" cx="256" cy="256" r="255.98"/><path class="cls-2" d="M0,255.76A255.63,255.63,0,0,1,103.44,50.44c113.54-84.25,273.87-60.52,358.12,53a254.76,254.76,0,0,1,49.93,136,76.89,76.89,0,0,0-14.24,6.88c-23.84,14.74-42,41.9-69.91,44.44-19.15,1.75-37.29-9.24-51.1-22.62s-24.87-29.51-39.4-42.12a112.53,112.53,0,0,0-157.7,10c-14.17,15.89-26.53,37.44-47.68,40-28.75,3.44-51.22-31.63-80-28.95-9.3.87-17.72,5.66-26.73,8A54.5,54.5,0,0,1,0,255.76Z"/><rect class="cls-3" x="323.03" y="59.31" width="34.48" height="178.78"/><rect class="cls-4" x="337.92" y="59.31" width="19.6" height="178.78"/><ellipse class="cls-5" cx="348.59" cy="126.33" rx="7.16" ry="17.8"/><ellipse class="cls-5" cx="348.59" cy="159.51" rx="5.06" ry="11.17"/><path class="cls-4" d="M393.37,229.46H413.2a6.39,6.39,0,0,1,6.39,6.39v42.44a0,0,0,0,1,0,0H387a0,0,0,0,1,0,0V235.85A6.39,6.39,0,0,1,393.37,229.46Z"/><path class="cls-4" d="M436.48,332.76V411.9H244.06V332.76a96.21,96.21,0,1,1,192.42,0Z"/><path class="cls-5" d="M436.48,332.76V411.9H278.55V332.76a96.23,96.23,0,0,1,79-94.67A96.23,96.23,0,0,1,436.48,332.76Z"/><rect class="cls-3" x="244.06" y="332.76" width="192.42" height="79.14"/><rect class="cls-4" x="278.55" y="332.76" width="157.93" height="79.14"/><rect class="cls-3" x="244.06" y="332.51" width="192.42" height="7.61"/><rect class="cls-6" x="244.06" y="332.51" width="34.48" height="7.61"/><ellipse class="cls-7" cx="384.19" cy="264.72" rx="9.92" ry="18.18" transform="translate(-20.93 496.14) rotate(-64.31)"/><ellipse class="cls-7" cx="410.64" cy="289.58" rx="6.82" ry="12.5" transform="matrix(0.83, -0.56, 0.56, 0.83, -91.68, 276.96)"/><circle class="cls-3" cx="388.98" cy="306.25" r="8.09"/><circle class="cls-3" cx="365.6" cy="306.25" r="8.09"/><path class="cls-6" d="M189.28,105.48V133H109.94V105.48a20.69,20.69,0,0,1,20.69-20.69h38A20.69,20.69,0,0,1,189.28,105.48Z"/><path class="cls-3" d="M189.28,105.48V133H127.51V105.48A20.69,20.69,0,0,1,148.2,84.79h20.38A20.69,20.69,0,0,1,189.28,105.48Z"/><path class="cls-3" d="M107.12,333.79V411.9H95.65V333.79a5.74,5.74,0,0,1,11.47,0Z"/><path class="cls-3" d="M155.33,358.75V411.9H143.88V358.75A5.73,5.73,0,0,1,149.6,353a5.63,5.63,0,0,1,4.05,1.68A5.71,5.71,0,0,1,155.33,358.75Z"/><path class="cls-3" d="M203.56,333.79V411.9H192.09V333.79a5.74,5.74,0,0,1,11.47,0Z"/><path class="cls-6" d="M105.44,329.74a5.69,5.69,0,0,1,1.68,4.05v25.34l-11.47-7.05V333.79a5.74,5.74,0,0,1,9.79-4.05Z"/><path class="cls-6" d="M153.65,354.7a5.71,5.71,0,0,1,1.68,4.05v22.64a15.87,15.87,0,0,1-11.45,0V358.75A5.73,5.73,0,0,1,149.6,353,5.63,5.63,0,0,1,153.65,354.7Z"/><path class="cls-6" d="M203.56,333.79v18.29l-11.47,7.05V333.79a5.74,5.74,0,0,1,11.47,0Z"/><path class="cls-4" d="M211.15,147.83V323.6a15.94,15.94,0,0,1-7.59,13.57L184.29,349,158,365.19a16,16,0,0,1-16.68,0l-45.62-28a16,16,0,0,1-7.58-13.57V147.83A14.8,14.8,0,0,1,102.86,133h93.49A14.8,14.8,0,0,1,211.15,147.83Z"/><path class="cls-5" d="M121,298.53V133h75.37a14.8,14.8,0,0,1,14.79,14.8V313.31H135.77A14.78,14.78,0,0,1,121,298.53Z"/><path class="cls-8" d="M196.18,229a46.56,46.56,0,1,1-46.57-46.58A46.57,46.57,0,0,1,196.18,229Z"/><path class="cls-7" d="M121,192.3v73.47a46.56,46.56,0,0,1,0-73.47Z"/><path class="cls-9" d="M152.47,259.57h-5.89a1.6,1.6,0,0,1-1.29-2l2.25-7.71h4.21c.4,1.35,1.84,6.28,2.26,7.71A1.6,1.6,0,0,1,152.47,259.57Z"/><path class="cls-10" d="M154.08,233.22l-4.47,4.47-4.47-4.47a24.15,24.15,0,0,1,0-34.15l4.47-4.47L152,197C163.07,206.3,164.46,222.85,154.08,233.22Z"/><path class="cls-11" d="M151,239.51c-.18.7-1.19,4.46-1.35,5.06l-5.06-1.35a20,20,0,0,1-14.15-24.51l1.35-5.06,2.22.59,1.28.34A20.16,20.16,0,0,1,151,239.51Z"/><path class="cls-11" d="M148.25,239.51l1.36,5.06,5.06-1.35a20,20,0,0,0,14.15-24.51l-1.36-5.06-3.5.94A20.16,20.16,0,0,0,148.25,239.51Z"/><path class="cls-12" d="M153.31,240.87l-3.7,3.7-3.71-3.7a20,20,0,0,1,0-28.3l3.71-3.71,2,2C160.76,218.56,161.92,232.27,153.31,240.87Z"/><path class="cls-13" d="M149.61,244.57v5.24h-5.24a20,20,0,0,1-20-20v-5.24h5.24A20.25,20.25,0,0,1,134,225,20,20,0,0,1,149.61,244.57Z"/><path class="cls-13" d="M149.61,244.57v5.24h5.24a20,20,0,0,0,20-20v-5.24h-5.24A20,20,0,0,0,149.61,244.57Z"/><path class="cls-7" d="M277.54,59.31H197.47a15.26,15.26,0,0,0-15.26,15.26V133h14.15V79.69a6.22,6.22,0,0,1,6.22-6.22h69.85a6.22,6.22,0,0,1,6.22,6.22V267.25a7.27,7.27,0,0,0,6.86,7.37,7.08,7.08,0,0,0,7.3-7.07v-193A15.27,15.27,0,0,0,277.54,59.31Z"/><ellipse class="cls-8" cx="287.32" cy="98.57" rx="4.42" ry="13.83"/><ellipse class="cls-8" cx="287.32" cy="124.36" rx="3.12" ry="8.68"/><ellipse class="cls-8" cx="211.02" cy="64.8" rx="11.17" ry="4.42"/><ellipse class="cls-8" cx="231.84" cy="64.8" rx="7.01" ry="3.12"/></svg>